<svg xmlns="http://www.w3.org/2000/svg" width="900" height="680" viewBox="0 0 900 680">
  <rect width="900" height="680" fill="#f8fafc"/>
  <rect x="0" y="0" width="900" height="96" fill="#113c44"/>
  <text x="34" y="39" fill="#ffffff" font-family="Arial, Helvetica, sans-serif" font-size="22" font-weight="700">QuickBooks Escalation Template</text>
  <text x="34" y="68" fill="#c7e4e8" font-family="Arial, Helvetica, sans-serif" font-size="14">Test fixture - not a customer record</text>
  <rect x="702" y="24" width="164" height="48" rx="6" fill="#c2410c"/>
  <text x="784" y="54" fill="#ffffff" font-family="Arial, Helvetica, sans-serif" font-size="14" font-weight="700" text-anchor="middle">PAYROLL - P2</text>
  <g font-family="Arial, Helvetica, sans-serif">
    <text x="34" y="137" fill="#64748b" font-size="13" font-weight="700">COID/MID</text>
    <text x="34" y="163" fill="#0f172a" font-size="18">9341 / 0027-5512</text>
    <line x1="34" y1="180" x2="866" y2="180" stroke="#dbe3ea"/>
    <text x="34" y="213" fill="#64748b" font-size="13" font-weight="700">CASE</text>
    <text x="34" y="239" fill="#0f172a" font-size="18">ESC-2026-0517-TEST</text>
    <line x1="34" y1="256" x2="866" y2="256" stroke="#dbe3ea"/>
    <text x="34" y="289" fill="#64748b" font-size="13" font-weight="700">CLIENT/CONTACT</text>
    <text x="34" y="315" fill="#0f172a" font-size="18">Larkspur Roasters LLC - Jordan M.</text>
    <line x1="34" y1="332" x2="866" y2="332" stroke="#dbe3ea"/>
    <text x="34" y="365" fill="#64748b" font-size="13" font-weight="700">CX IS ATTEMPTING TO</text>
    <text x="34" y="391" fill="#0f172a" font-size="18">Run final payroll for a terminated California employee today.</text>
    <line x1="34" y1="408" x2="866" y2="408" stroke="#dbe3ea"/>
    <text x="34" y="441" fill="#64748b" font-size="13" font-weight="700">EXPECTED OUTCOME</text>
    <text x="34" y="467" fill="#0f172a" font-size="18">Final paycheck can be created with pay date 05/17/2026.</text>
    <line x1="34" y1="484" x2="866" y2="484" stroke="#dbe3ea"/>
    <text x="34" y="517" fill="#64748b" font-size="13" font-weight="700">ACTUAL OUTCOME</text>
    <text x="34" y="543" fill="#0f172a" font-size="18">Payroll wizard stops at step 3 with PSE_TERM_DATE_AFTER_PERIOD.</text>
    <line x1="34" y1="560" x2="866" y2="560" stroke="#dbe3ea"/>
    <text x="34" y="593" fill="#64748b" font-size="13" font-weight="700">KB/TOOLS USED</text>
    <text x="34" y="619" fill="#0f172a" font-size="18">Payroll help article, test company, incognito browser.</text>
    <text x="34" y="649" fill="#64748b" font-size="13" font-weight="700">TRIED TEST ACCOUNT: Yes - same error after clearing cache.</text>
  </g>
</svg>
